# xmcd
# Track frame offsets:
# 150
# 13383
# 27470
# 40998
# 50059
# 62972
# 76540
# 95272
# 107903
# 126189
# 140405
#
# Disc length: 2136 seconds
# Revision: 0
# Processed by: cddbd v1.5.2PL0 Copyright (c) Steve Scherf et al.
# Submitted via: VisiTrax 2.11.1.266 - For more info visit www.synapsa.com
#
DISCID=9708560b
DTITLE=Georgia Lee - Sings The Blues Down Under
DYEAR=2009
DGENRE=
TTITLE0=Beale Street Blues
TTITLE1=Pete Kelly's Blues
TTITLE2=Nobody Knows You When You're Down And Out
TTITLE3=Careless Love
TTITLE4=Yarra River Blues
TTITLE5=Basin St. Blues
TTITLE6=Born To Be Blue
TTITLE7=Blues In The Night
TTITLE8=Nobody Knows The Trouble I've Seen
TTITLE9=Down Under Blues
TTITLE10=St. Louis Blues
EXTD=
EXTT0=
EXTT1=
EXTT2=
EXTT3=
EXTT4=
EXTT5=
EXTT6=
EXTT7=
EXTT8=
EXTT9=
EXTT10=
PLAYORDER=
